<svg fill="none" height="48" viewBox="0 0 48 48" width="48" xmlns="http://www.w3.org/2000/svg"><path d="m0 0h48v48h-48z" fill="#fff" fill-opacity=".01"/><g stroke="#000" stroke-linecap="round" stroke-linejoin="round" stroke-width="4"><path d="m23.9999 24-10.4999 6.0621m10.4999-6.0621 10.4999 6.0621m-10.4999-6.0621v-12"/><path d="m14 16c0 2.2091-1.7909 4-4 4-2.20914 0-4-1.7909-4-4s1.79086-4 4-4c2.2091 0 4 1.7909 4 4z" fill="#2f88ff"/><path d="m14 32c0 2.2091-1.7909 4-4 4-2.20914 0-4-1.7909-4-4s1.79086-4 4-4c2.2091 0 4 1.7909 4 4z" fill="#2f88ff"/><path d="m28 40c0 2.2091-1.7909 4-4 4s-4-1.7909-4-4 1.7909-4 4-4 4 1.7909 4 4z" fill="#2f88ff"/><path d="m42 32c0 2.2091-1.7909 4-4 4s-4-1.7909-4-4 1.7909-4 4-4 4 1.7909 4 4z" fill="#2f88ff"/><path d="m42 16c0 2.2091-1.7909 4-4 4s-4-1.7909-4-4 1.7909-4 4-4 4 1.7909 4 4z" fill="#2f88ff"/><path d="m28 8c0 2.2091-1.7909 4-4 4s-4-1.7909-4-4c0-2.20914 1.7909-4 4-4s4 1.79086 4 4z" fill="#2f88ff"/></g></svg>